<svg width="25" height="24" viewBox="0 0 25 24" fill="none" xmlns="http://www.w3.org/2000/svg">
<path d="M18 19C17.1716 19 16.5 18.3284 16.5 17.5V15.692C16.5 14.8636 17.1716 14.192 18 14.192C18.8284 14.192 19.5 14.8636 19.5 15.692V17.5C19.5 18.3284 18.8284 19 18 19ZM12.5 19C11.6716 19 11 18.3284 11 17.5V6.5C11 5.67157 11.6716 5 12.5 5C13.3284 5 14 5.67157 14 6.5V17.5C14 18.3284 13.3284 19 12.5 19ZM7 19C6.17157 19 5.5 18.3284 5.5 17.5V11.308C5.5 10.4796 6.17157 9.808 7 9.808C7.82843 9.808 8.5 10.4796 8.5 11.308V17.5C8.5 18.3284 7.82843 19 7 19Z" fill="#A3A3A3"/>
</svg>
