<svg width="25" height="24" viewBox="0 0 25 24" fill="none" xmlns="http://www.w3.org/2000/svg">
<path d="M15 10C14.7793 10.058 14.5637 10.128 14.353 10.21M18 10C20.588 10.677 22.5 13.063 22.5 15.904C22.5 19.271 19.814 22 16.5 22C15.8183 22.0007 15.1416 21.8833 14.5 21.653M11 13.463C10.6699 14.2344 10.4998 15.0649 10.5 15.904C10.5 16.832 10.704 17.712 11.07 18.5" stroke="#78797A" stroke-width="1.5" stroke-linecap="round" stroke-linejoin="round"/>
<path d="M16.498 7C17.915 7 18.703 10.498 17.148 10.924C16.7203 11.0261 16.2747 11.0261 15.847 10.924C14.295 10.499 15.094 7 16.497 7M16.5 7V2M7 10C4.412 10.677 2.5 13.063 2.5 15.904C2.5 19.271 5.186 22 8.5 22C11.814 22 14.5 19.27 14.5 15.904C14.5 13.064 12.588 10.677 10 10" stroke="#78797A" stroke-width="1.5" stroke-linecap="round" stroke-linejoin="round"/>
<path d="M8.50001 7V2M8.49801 7C9.91501 7 10.703 10.498 9.14801 10.924C8.72036 11.0261 8.27466 11.0261 7.84701 10.924C6.29501 10.499 7.09501 7 8.49801 7Z" stroke="#78797A" stroke-width="1.5" stroke-linecap="round" stroke-linejoin="round"/>
</svg>
