<svg width="24" height="24" viewBox="0 0 24 24" fill="none" xmlns="http://www.w3.org/2000/svg">
<path d="M3 3V21M21 3V21M22 6H2M15.5 10C16.605 10 17.5 10.97 17.5 12.165C17.5 12.448 17.45 12.719 17.358 12.967C17.064 13.765 13.869 13.584 13.642 12.967C13.5473 12.7102 13.4992 12.4387 13.5 12.165C13.5 10.969 14.395 10 15.5 10ZM15.5 10V6M8.5 10C9.605 10 10.5 10.97 10.5 12.165C10.5 12.448 10.45 12.719 10.358 12.967C10.064 13.765 6.869 13.584 6.642 12.967C6.54733 12.7102 6.49925 12.4387 6.5 12.165C6.5 10.969 7.395 10 8.5 10ZM8.5 10V6" stroke="#78797A" stroke-width="1.5" stroke-linecap="round" stroke-linejoin="round"/>
</svg>
