<svg width="24" height="24" viewBox="0 0 24 24" fill="none" xmlns="http://www.w3.org/2000/svg">
<path d="M18 3V8M6 3V8M20.5 4V5.5M20.5 5.5V7M20.5 5.5H22M3.5 4V5.5M3.5 5.5V7M3.5 5.5H2M18 5.5H6M9 8V16M15 8V16M16 19V21M8 19V21M7.277 19H16.724C17.961 19 18.58 19 18.836 18.697C19.416 18.011 18.304 17.103 17.898 16.646C17.441 16.13 17.106 16 16.43 16H7.57C6.894 16 6.56 16.13 6.102 16.646C5.696 17.103 4.584 18.011 5.164 18.697C5.42 19 6.04 19 7.277 19Z" stroke="#78797A" stroke-width="1.5" stroke-linecap="round" stroke-linejoin="round"/>
</svg>
