<svg width="40" height="40" viewBox="0 0 40 40" fill="none" xmlns="http://www.w3.org/2000/svg">
<rect width="40" height="40" rx="20" fill="white"/>
<path d="M25.2493 17.8956V17.3567C25.2493 14.3983 22.8991 12 20 12C17.1009 12 14.7507 14.3983 14.7507 17.3567V17.8956C14.7507 18.5422 14.5631 19.1743 14.2116 19.7124L13.3503 21.0308C12.5635 22.2351 13.1641 23.872 14.5325 24.2528C18.1121 25.2491 21.8879 25.2491 25.4675 24.2528C26.8359 23.872 27.4365 22.2351 26.6497 21.0308L25.7884 19.7124C25.4369 19.1743 25.2493 18.5422 25.2493 17.8956Z" stroke="#1C274C" stroke-width="1.5"/>
<path d="M16.5 25C17.0095 26.7478 18.3841 28 20 28C21.6159 28 22.9905 26.7478 23.5 25" stroke="#1C274C" stroke-width="1.5" stroke-linecap="round"/>
</svg>
