<svg width="25" height="24" viewBox="0 0 25 24" fill="none" xmlns="http://www.w3.org/2000/svg">
<g clip-path="url(#clip0_1_739)">
<path fill-rule="evenodd" clip-rule="evenodd" d="M12.5 4C11.9696 4 11.4609 4.21071 11.0858 4.58579C10.7107 4.96086 10.5 5.46957 10.5 6H14.5C14.5 5.46957 14.2893 4.96086 13.9142 4.58579C13.5391 4.21071 13.0304 4 12.5 4ZM9.854 3C10.559 2.378 11.486 2 12.5 2C13.514 2 14.44 2.378 15.146 3H18.5C19.0304 3 19.5391 3.21071 19.9142 3.58579C20.2893 3.96086 20.5 4.46957 20.5 5V20C20.5 20.5304 20.2893 21.0391 19.9142 21.4142C19.5391 21.7893 19.0304 22 18.5 22H6.5C5.96957 22 5.46086 21.7893 5.08579 21.4142C4.71071 21.0391 4.5 20.5304 4.5 20V5C4.5 4.46957 4.71071 3.96086 5.08579 3.58579C5.46086 3.21071 5.96957 3 6.5 3H9.854ZM8.626 5H6.5V20H18.5V5H16.374C16.4567 5.32067 16.4987 5.654 16.5 6V7C16.5 7.26522 16.3946 7.51957 16.2071 7.70711C16.0196 7.89464 15.7652 8 15.5 8H9.5C9.23478 8 8.98043 7.89464 8.79289 7.70711C8.60536 7.51957 8.5 7.26522 8.5 7V6C8.50133 5.654 8.54333 5.32067 8.626 5ZM8.5 11C8.5 10.7348 8.60536 10.4804 8.79289 10.2929C8.98043 10.1054 9.23478 10 9.5 10H15.5C15.7652 10 16.0196 10.1054 16.2071 10.2929C16.3946 10.4804 16.5 10.7348 16.5 11C16.5 11.2652 16.3946 11.5196 16.2071 11.7071C16.0196 11.8946 15.7652 12 15.5 12H9.5C9.23478 12 8.98043 11.8946 8.79289 11.7071C8.60536 11.5196 8.5 11.2652 8.5 11ZM8.5 15C8.5 14.7348 8.60536 14.4804 8.79289 14.2929C8.98043 14.1054 9.23478 14 9.5 14H12.5C12.7652 14 13.0196 14.1054 13.2071 14.2929C13.3946 14.4804 13.5 14.7348 13.5 15C13.5 15.2652 13.3946 15.5196 13.2071 15.7071C13.0196 15.8946 12.7652 16 12.5 16H9.5C9.23478 16 8.98043 15.8946 8.79289 15.7071C8.60536 15.5196 8.5 15.2652 8.5 15Z" fill="#A3A3A3"/>
</g>
<defs>
<clipPath id="clip0_1_739">
<rect width="24" height="24" fill="white" transform="translate(0.5)"/>
</clipPath>
</defs>
</svg>
