<svg width="116" height="140" viewBox="0 0 116 140" fill="none" xmlns="http://www.w3.org/2000/svg">
<rect x="0.5" y="0.5" width="115" height="139" rx="7.5" fill="url(#paint0_linear_1_778)"/>
<rect x="0.5" y="0.5" width="115" height="139" rx="7.5" stroke="url(#paint1_linear_1_778)"/>
<path d="M6.99707 63.0859H8.22754C8.2666 63.4017 8.43099 63.654 8.7207 63.8428C9.01042 64.0283 9.37826 64.1211 9.82422 64.1211C10.2409 64.1211 10.5827 64.0267 10.8496 63.8379C11.1198 63.6458 11.2549 63.4017 11.2549 63.1055C11.2549 62.8516 11.1523 62.6449 10.9473 62.4854C10.7454 62.3258 10.4183 62.194 9.96582 62.0898L9.05273 61.8799C8.41471 61.7367 7.94108 61.5039 7.63184 61.1816C7.32585 60.8561 7.17285 60.4313 7.17285 59.9072C7.17285 59.266 7.41211 58.7516 7.89062 58.3643C8.3724 57.9736 9.00716 57.7783 9.79492 57.7783C10.5339 57.7783 11.1458 57.9704 11.6309 58.3545C12.1159 58.7386 12.373 59.2334 12.4023 59.8389H11.1963C11.154 59.5296 11.0059 59.2839 10.752 59.1016C10.498 58.9193 10.1774 58.8281 9.79004 58.8281C9.38314 58.8281 9.05599 58.9193 8.80859 59.1016C8.56445 59.2806 8.44238 59.5199 8.44238 59.8193C8.44238 60.057 8.53841 60.2507 8.73047 60.4004C8.92253 60.5469 9.23665 60.6706 9.67285 60.7715L10.4834 60.957C11.1963 61.1165 11.7122 61.3542 12.0312 61.6699C12.3535 61.9857 12.5146 62.4121 12.5146 62.9492C12.5146 63.6361 12.2656 64.1797 11.7676 64.5801C11.2728 64.9772 10.599 65.1758 9.74609 65.1758C8.9388 65.1758 8.28613 64.987 7.78809 64.6094C7.29329 64.2318 7.02962 63.724 6.99707 63.0859ZM14.9307 57.9541H17.7725C18.4756 57.9541 19.0452 58.1738 19.4814 58.6133C19.9209 59.0527 20.1406 59.6273 20.1406 60.3369C20.1406 61.0335 19.9144 61.5999 19.4619 62.0361C19.0127 62.4723 18.4316 62.6904 17.7188 62.6904H16.1904V65H14.9307V57.9541ZM16.1904 59.0088V61.6455H17.4355C17.888 61.6455 18.238 61.5316 18.4854 61.3037C18.736 61.0758 18.8613 60.7536 18.8613 60.3369C18.8613 59.9072 18.7376 59.5785 18.4902 59.3506C18.2461 59.1227 17.8962 59.0088 17.4404 59.0088H16.1904ZM23.792 58.999V61.3574H25.2471C25.6475 61.3574 25.9567 61.2549 26.1748 61.0498C26.3962 60.8447 26.5068 60.555 26.5068 60.1807C26.5068 59.8128 26.3913 59.5247 26.1602 59.3164C25.9323 59.1048 25.6182 58.999 25.2178 58.999H23.792ZM23.792 62.3584V65H22.5322V57.9541H25.3936C26.1325 57.9541 26.7184 58.1527 27.1514 58.5498C27.5843 58.9437 27.8008 59.4792 27.8008 60.1562C27.8008 60.625 27.6836 61.04 27.4492 61.4014C27.2148 61.7594 26.8893 62.0133 26.4727 62.1631L28.0107 65H26.5703L25.1885 62.3584H23.792ZM31.5889 65H30.3291V57.9541H31.5889V65ZM35.543 65H34.3271V57.9541H35.4209L38.8779 62.7441H38.9609V57.9541H40.1719V65H39.083L35.626 60.2051H35.543V65ZM45.9277 65H44.668V59.043H42.5V57.9541H48.1006V59.043H45.9277V65Z" fill="#DEB400"/>
<path d="M6.76562 88.3203H8.48828C8.54297 88.7624 8.77311 89.1156 9.17871 89.3799C9.58431 89.6396 10.0993 89.7695 10.7236 89.7695C11.307 89.7695 11.7855 89.6374 12.1592 89.373C12.5374 89.1042 12.7266 88.7624 12.7266 88.3477C12.7266 87.9922 12.583 87.7028 12.2959 87.4795C12.0133 87.2562 11.5553 87.0716 10.9219 86.9258L9.64355 86.6318C8.75033 86.4313 8.08724 86.1055 7.6543 85.6543C7.22591 85.1986 7.01172 84.6038 7.01172 83.8701C7.01172 82.9723 7.34668 82.2523 8.0166 81.71C8.69108 81.1631 9.57975 80.8896 10.6826 80.8896C11.7171 80.8896 12.5739 81.1585 13.2529 81.6963C13.932 82.234 14.292 82.9268 14.333 83.7744H12.6445C12.5853 83.3415 12.3779 82.9974 12.0225 82.7422C11.667 82.487 11.2181 82.3594 10.6758 82.3594C10.1061 82.3594 9.64811 82.487 9.30176 82.7422C8.95996 82.9928 8.78906 83.3278 8.78906 83.7471C8.78906 84.0798 8.9235 84.3509 9.19238 84.5605C9.46126 84.7656 9.90104 84.9388 10.5117 85.0801L11.6465 85.3398C12.6445 85.5632 13.3669 85.8958 13.8135 86.3379C14.2646 86.7799 14.4902 87.377 14.4902 88.1289C14.4902 89.0905 14.1416 89.8516 13.4443 90.4121C12.7516 90.9681 11.8083 91.2461 10.6143 91.2461C9.48405 91.2461 8.57031 90.9818 7.87305 90.4531C7.18034 89.9245 6.8112 89.2135 6.76562 88.3203ZM20.2291 83.3984C21.1771 83.3984 21.9267 83.7425 22.4782 84.4307C23.0342 85.1188 23.3121 86.0622 23.3121 87.2607C23.3121 88.4548 23.0364 89.3981 22.485 90.0908C21.9381 90.779 21.193 91.123 20.2496 91.123C19.7164 91.123 19.2493 91.0137 18.8483 90.7949C18.4518 90.5716 18.1579 90.2617 17.9664 89.8652H17.8502V93.4883H16.1549V83.5215H17.7887V84.7588H17.9049C18.1191 84.335 18.4313 84.0023 18.8414 83.7607C19.2562 83.5192 19.7187 83.3984 20.2291 83.3984ZM19.6959 89.6807C20.2838 89.6807 20.7418 89.4665 21.07 89.0381C21.4026 88.6097 21.569 88.0173 21.569 87.2607C21.569 86.5042 21.4026 85.9118 21.07 85.4834C20.7418 85.055 20.2861 84.8408 19.7028 84.8408C19.124 84.8408 18.666 85.0573 18.3287 85.4902C17.9915 85.9232 17.8206 86.5133 17.8161 87.2607C17.8206 88.0081 17.9892 88.5983 18.3219 89.0312C18.6592 89.4642 19.1172 89.6807 19.6959 89.6807ZM24.8743 91V83.5215H26.5081V84.6836H26.6243C26.7291 84.3099 26.9638 84.0023 27.3284 83.7607C27.6975 83.5192 28.1214 83.3984 28.5999 83.3984C28.9052 83.3984 29.1399 83.4235 29.304 83.4736V85.0459C29.1308 84.9821 28.8414 84.9502 28.4358 84.9502C27.8844 84.9502 27.4355 85.1097 27.0891 85.4287C26.7428 85.7432 26.5696 86.1602 26.5696 86.6797V91H24.8743ZM30.6747 91V83.5215H32.3632V91H30.6747ZM31.5155 82.3047C31.2102 82.3047 30.9596 82.2181 30.7636 82.0449C30.5676 81.8672 30.4696 81.6416 30.4696 81.3682C30.4696 81.0947 30.5676 80.8714 30.7636 80.6982C30.9596 80.5205 31.2102 80.4316 31.5155 80.4316C31.8254 80.4316 32.0761 80.5205 32.2675 80.6982C32.4635 80.8714 32.5614 81.0947 32.5614 81.3682C32.5614 81.6416 32.4635 81.8672 32.2675 82.0449C32.0761 82.2181 31.8254 82.3047 31.5155 82.3047ZM34.3287 91V83.5215H35.9625V84.7178H36.0787C36.261 84.2894 36.539 83.959 36.9127 83.7266C37.2909 83.4896 37.7535 83.3711 38.3004 83.3711C39.1298 83.3711 39.7655 83.6126 40.2076 84.0957C40.6542 84.5788 40.8775 85.2669 40.8775 86.1602V91H39.1822V86.5635C39.1822 85.4196 38.6786 84.8477 37.6714 84.8477C37.1656 84.8477 36.7645 85.0094 36.4683 85.333C36.1721 85.6566 36.024 86.0941 36.024 86.6455V91H34.3287ZM43.2873 81.6895H44.9758V83.5693H46.5754V84.9229H44.9758V88.5938C44.9758 88.9629 45.0578 89.234 45.2219 89.4072C45.3859 89.5758 45.6457 89.6602 46.0012 89.6602C46.1561 89.6602 46.3475 89.6488 46.5754 89.626V90.9521C46.2928 91.0068 45.9966 91.0342 45.6867 91.0342C44.8299 91.0342 44.2147 90.877 43.841 90.5625C43.4719 90.248 43.2873 89.7285 43.2873 89.0039V84.9229H42.1047V83.5693H43.2873V81.6895ZM52.2632 81.6895H53.9516V83.5693H55.5513V84.9229H53.9516V88.5938C53.9516 88.9629 54.0337 89.234 54.1977 89.4072C54.3618 89.5758 54.6216 89.6602 54.977 89.6602C55.132 89.6602 55.3234 89.6488 55.5513 89.626V90.9521C55.2687 91.0068 54.9725 91.0342 54.6626 91.0342C53.8058 91.0342 53.1906 90.877 52.8169 90.5625C52.4477 90.248 52.2632 89.7285 52.2632 89.0039V84.9229H51.0805V83.5693H52.2632V81.6895ZM58.8907 89.0859C59.2143 89.5143 59.6723 89.7285 60.2648 89.7285C60.8572 89.7285 61.3129 89.5143 61.632 89.0859C61.9555 88.653 62.1173 88.0446 62.1173 87.2607C62.1173 86.4814 61.9555 85.8753 61.632 85.4424C61.3084 85.0094 60.8527 84.793 60.2648 84.793C59.6723 84.793 59.2143 85.0094 58.8907 85.4424C58.5672 85.8753 58.4054 86.4814 58.4054 87.2607C58.4054 88.0446 58.5672 88.653 58.8907 89.0859ZM60.2648 91.1504C59.1437 91.1504 58.2641 90.8063 57.6261 90.1182C56.9881 89.4255 56.6691 88.473 56.6691 87.2607C56.6691 86.0576 56.9904 85.1097 57.6329 84.417C58.2755 83.7197 59.1528 83.3711 60.2648 83.3711C61.3813 83.3711 62.2586 83.7174 62.8966 84.4102C63.5392 85.1029 63.8605 86.0531 63.8605 87.2607C63.8605 88.473 63.5392 89.4255 62.8966 90.1182C62.2586 90.8063 61.3813 91.1504 60.2648 91.1504ZM15.5361 107H13.7793V102.741H8.98047V107H7.2168V97.1357H8.98047V101.217H13.7793V97.1357H15.5361V107ZM20.7965 100.718C20.2907 100.718 19.8737 100.884 19.5455 101.217C19.2174 101.549 19.0351 101.989 18.9987 102.536H22.5192C22.501 101.98 22.3369 101.538 22.027 101.21C21.7171 100.882 21.3069 100.718 20.7965 100.718ZM22.5329 104.942H24.1393C23.9798 105.626 23.6038 106.166 23.0114 106.562C22.4235 106.954 21.692 107.15 20.817 107.15C19.7187 107.15 18.8551 106.809 18.2262 106.125C17.6019 105.437 17.2897 104.491 17.2897 103.288C17.2897 102.085 17.6041 101.132 18.233 100.431C18.862 99.7243 19.7187 99.3711 20.8034 99.3711C21.8698 99.3711 22.7037 99.7061 23.3053 100.376C23.9114 101.041 24.2145 101.964 24.2145 103.145V103.691H18.9918V103.78C19.0146 104.405 19.1924 104.899 19.525 105.264C19.8623 105.624 20.3089 105.804 20.8649 105.804C21.7217 105.804 22.2776 105.517 22.5329 104.942ZM28.3333 105.79C28.8437 105.79 29.2698 105.644 29.6116 105.353C29.9534 105.056 30.1243 104.692 30.1243 104.259V103.664L28.4358 103.773C27.5061 103.833 27.0413 104.17 27.0413 104.785C27.0413 105.095 27.1598 105.341 27.3968 105.523C27.6383 105.701 27.9505 105.79 28.3333 105.79ZM27.8343 107.123C27.1051 107.123 26.5104 106.918 26.0501 106.508C25.5898 106.098 25.3596 105.555 25.3596 104.881C25.3596 104.206 25.6035 103.678 26.0911 103.295C26.5833 102.912 27.2851 102.693 28.1966 102.639L30.1243 102.522V101.894C30.1243 101.524 30.0035 101.242 29.762 101.046C29.5205 100.85 29.1718 100.752 28.7161 100.752C28.3242 100.752 28.0006 100.82 27.7454 100.957C27.4902 101.089 27.3238 101.281 27.2464 101.531H25.6468C25.7151 100.87 26.0341 100.346 26.6038 99.959C27.178 99.5671 27.9095 99.3711 28.7981 99.3711C29.7552 99.3711 30.4934 99.5921 31.013 100.034C31.5371 100.476 31.7991 101.096 31.7991 101.894V107H30.1653V105.975H30.0491C29.8395 106.335 29.5387 106.617 29.1468 106.822C28.7594 107.023 28.3219 107.123 27.8343 107.123ZM33.7714 107V96.6299H35.4667V107H33.7714ZM38.0132 97.6895H39.7017V99.5693H41.3013V100.923H39.7017V104.594C39.7017 104.963 39.7838 105.234 39.9478 105.407C40.1119 105.576 40.3716 105.66 40.7271 105.66C40.8821 105.66 41.0735 105.649 41.3013 105.626V106.952C41.0188 107.007 40.7226 107.034 40.4127 107.034C39.5559 107.034 38.9407 106.877 38.567 106.562C38.1978 106.248 38.0132 105.729 38.0132 105.004V100.923H36.8306V99.5693H38.0132V97.6895ZM42.925 107V96.6299H44.593V100.731H44.716C44.8937 100.308 45.1786 99.9772 45.5705 99.7402C45.9624 99.5033 46.4341 99.3848 46.9855 99.3848C47.7922 99.3848 48.4211 99.6286 48.8723 100.116C49.328 100.604 49.5559 101.29 49.5559 102.174V107H47.8605V102.577C47.8605 102.012 47.7329 101.586 47.4777 101.299C47.2225 101.007 46.8488 100.861 46.3566 100.861C45.8098 100.861 45.3837 101.025 45.0783 101.354C44.773 101.677 44.6203 102.112 44.6203 102.659V107H42.925Z" fill="#1E1E1E"/>
<path d="M7.89941 128H6.88379V120.954H8.16309L10.4043 126.306H10.4873L12.7334 120.954H14.0127V128H12.9971V122.912H12.9287L10.8633 127.795H10.0332L7.96777 122.912H7.89941V128ZM17.0965 127.204C17.4904 127.204 17.8175 127.093 18.0779 126.872C18.3416 126.651 18.4734 126.374 18.4734 126.042V125.598L17.1746 125.681C16.81 125.703 16.5415 125.778 16.3689 125.905C16.1964 126.032 16.1102 126.213 16.1102 126.447C16.1102 126.682 16.2013 126.867 16.3836 127.004C16.5659 127.137 16.8035 127.204 17.0965 127.204ZM16.8279 128.088C16.3071 128.088 15.8807 127.943 15.5486 127.653C15.2199 127.36 15.0555 126.975 15.0555 126.496C15.0555 126.021 15.2264 125.648 15.5682 125.378C15.91 125.104 16.3982 124.948 17.033 124.909L18.4734 124.826V124.367C18.4734 124.084 18.3807 123.868 18.1951 123.718C18.0096 123.565 17.7394 123.488 17.3846 123.488C17.0916 123.488 16.8475 123.54 16.6521 123.645C16.4601 123.745 16.3348 123.89 16.2762 124.079H15.2605C15.3126 123.623 15.5356 123.26 15.9295 122.99C16.3266 122.717 16.8279 122.58 17.4334 122.58C18.0975 122.58 18.6102 122.738 18.9715 123.054C19.3361 123.366 19.5184 123.804 19.5184 124.367V128H18.5076V127.253H18.4246C18.2651 127.52 18.0454 127.727 17.7654 127.873C17.4887 128.016 17.1762 128.088 16.8279 128.088ZM20.7125 128V122.683H21.7232V123.498H21.8014C21.8762 123.234 22.0471 123.018 22.3141 122.849C22.5842 122.679 22.8919 122.595 23.2369 122.595C23.4355 122.595 23.5917 122.609 23.7057 122.639V123.674C23.5787 123.632 23.3834 123.61 23.1197 123.61C22.7193 123.61 22.3922 123.726 22.1383 123.957C21.8876 124.188 21.7623 124.489 21.7623 124.86V128H20.7125ZM28.5402 128V122.131H28.4572L26.6896 123.381V122.263L28.5451 120.954H29.634V128H28.5402ZM31.3262 122.99C31.3262 122.342 31.5475 121.813 31.9902 121.403C32.4329 120.99 33.001 120.783 33.6943 120.783C34.3649 120.783 34.9199 120.974 35.3594 121.354C35.7988 121.735 36.0186 122.215 36.0186 122.795C36.0186 123.169 35.9079 123.54 35.6865 123.908C35.4684 124.273 35.0648 124.753 34.4756 125.349L32.9082 126.936V127.019H36.1309V128H31.3848V127.209L33.7676 124.729C34.2363 124.24 34.5488 123.872 34.7051 123.625C34.8613 123.374 34.9395 123.119 34.9395 122.858C34.9395 122.536 34.8174 122.268 34.5732 122.053C34.3291 121.838 34.0247 121.73 33.6602 121.73C33.2728 121.73 32.9587 121.846 32.7178 122.077C32.4801 122.308 32.3613 122.613 32.3613 122.99V123.005H31.3262V122.99ZM42.9234 125.676H39.7203V124.646H42.9234V125.676ZM47.7385 128H46.7229V120.954H48.0021L50.2434 126.306H50.3264L52.5725 120.954H53.8518V128H52.8361V122.912H52.7678L50.7023 127.795H49.8723L47.8068 122.912H47.7385V128ZM56.9355 127.204C57.3294 127.204 57.6566 127.093 57.917 126.872C58.1807 126.651 58.3125 126.374 58.3125 126.042V125.598L57.0137 125.681C56.6491 125.703 56.3805 125.778 56.208 125.905C56.0355 126.032 55.9492 126.213 55.9492 126.447C55.9492 126.682 56.0404 126.867 56.2227 127.004C56.4049 127.137 56.6426 127.204 56.9355 127.204ZM56.667 128.088C56.1462 128.088 55.7197 127.943 55.3877 127.653C55.0589 127.36 54.8945 126.975 54.8945 126.496C54.8945 126.021 55.0654 125.648 55.4072 125.378C55.749 125.104 56.2373 124.948 56.8721 124.909L58.3125 124.826V124.367C58.3125 124.084 58.2197 123.868 58.0342 123.718C57.8486 123.565 57.5785 123.488 57.2236 123.488C56.9307 123.488 56.6865 123.54 56.4912 123.645C56.2992 123.745 56.1738 123.89 56.1152 124.079H55.0996C55.1517 123.623 55.3747 123.26 55.7686 122.99C56.1657 122.717 56.667 122.58 57.2725 122.58C57.9365 122.58 58.4492 122.738 58.8105 123.054C59.1751 123.366 59.3574 123.804 59.3574 124.367V128H58.3467V127.253H58.2637C58.1042 127.52 57.8844 127.727 57.6045 127.873C57.3278 128.016 57.0153 128.088 56.667 128.088ZM60.5516 128V122.683H61.5623V123.498H61.6404C61.7153 123.234 61.8862 123.018 62.1531 122.849C62.4233 122.679 62.7309 122.595 63.076 122.595C63.2745 122.595 63.4308 122.609 63.5447 122.639V123.674C63.4178 123.632 63.2225 123.61 62.9588 123.61C62.5584 123.61 62.2313 123.726 61.9773 123.957C61.7267 124.188 61.6014 124.489 61.6014 124.86V128H60.5516ZM68.2279 124.836V123.933H69.0824C69.46 123.933 69.7676 123.828 70.0053 123.62C70.2429 123.412 70.3617 123.142 70.3617 122.81C70.3617 122.481 70.2462 122.219 70.015 122.023C69.7839 121.825 69.4763 121.726 69.0922 121.726C68.7081 121.726 68.3972 121.825 68.1596 122.023C67.9252 122.222 67.7934 122.495 67.7641 122.844H66.724C66.7598 122.206 66.9926 121.703 67.4223 121.335C67.852 120.967 68.42 120.783 69.1264 120.783C69.7807 120.783 70.3292 120.962 70.7719 121.32C71.2178 121.675 71.4408 122.118 71.4408 122.648C71.4408 123.062 71.3269 123.415 71.099 123.708C70.8744 124.001 70.5684 124.191 70.1811 124.279V124.362C70.6596 124.418 71.0372 124.6 71.3139 124.909C71.5906 125.215 71.7289 125.604 71.7289 126.076C71.7289 126.47 71.6166 126.826 71.392 127.146C71.1674 127.465 70.8565 127.715 70.4594 127.897C70.0655 128.08 69.6277 128.171 69.1459 128.171C68.407 128.171 67.8031 127.98 67.3344 127.6C66.8689 127.219 66.6199 126.714 66.5873 126.086H67.6371C67.6729 126.428 67.8259 126.7 68.0961 126.901C68.3695 127.103 68.7195 127.204 69.1459 127.204C69.5756 127.204 69.9271 127.093 70.2006 126.872C70.474 126.651 70.6107 126.366 70.6107 126.018C70.6107 125.653 70.4773 125.365 70.2104 125.153C69.9434 124.942 69.5788 124.836 69.1166 124.836H68.2279ZM75.2863 128.171C74.4628 128.171 73.8215 127.847 73.3625 127.199C72.9068 126.551 72.6789 125.642 72.6789 124.47C72.6789 123.308 72.9084 122.403 73.3674 121.755C73.8264 121.107 74.466 120.783 75.2863 120.783C76.1001 120.783 76.7365 121.109 77.1955 121.76C77.6545 122.408 77.884 123.314 77.884 124.479C77.884 125.648 77.6561 126.556 77.2004 127.204C76.7447 127.849 76.1066 128.171 75.2863 128.171ZM74.173 126.506C74.4335 126.978 74.8046 127.214 75.2863 127.214C75.7681 127.214 76.1376 126.979 76.3947 126.511C76.6519 126.039 76.7805 125.358 76.7805 124.47C76.7805 123.591 76.6503 122.917 76.3898 122.448C76.1294 121.976 75.7616 121.74 75.2863 121.74C74.8111 121.74 74.4416 121.976 74.1779 122.448C73.9143 122.92 73.7824 123.594 73.7824 124.47C73.7824 125.355 73.9126 126.034 74.173 126.506Z" fill="#78797A"/>
<circle cx="21" cy="26" r="16" fill="white"/>
<circle cx="21" cy="26" r="15.5" stroke="white" stroke-opacity="0.12"/>
<path d="M29.1301 20.1551C28.5337 19.6447 27.8255 19.2818 27.0629 19.0959C26.3002 18.91 25.5045 18.9063 24.7401 19.0851C23.2034 19.4216 21.8604 20.3481 21.0001 21.6651C20.1446 20.3524 18.8094 19.4264 17.2801 19.0851C16.5192 18.9023 15.7263 18.8975 14.9632 19.0709C14.2001 19.2443 13.4873 19.5914 12.8801 20.0851C11.3001 21.4651 10.4301 24.5251 11.4201 27.6251C11.5321 27.9678 11.6654 28.3011 11.8201 28.6251C11.8601 28.7004 11.8968 28.7771 11.9301 28.8551C14.5001 34.0951 20.4401 36.8551 20.7001 36.9851C20.7967 37.0319 20.9028 37.0559 21.0101 37.0551C21.1174 37.0559 21.2235 37.0319 21.3201 36.9851C21.5701 36.8751 27.5701 34.1351 30.1201 28.8351L30.2001 28.6651C30.3581 28.3251 30.4948 27.9751 30.6101 27.6151C31.5501 24.6151 30.6901 21.5551 29.1301 20.1551ZM28.8201 28.0851C28.6801 28.3991 28.5201 28.7024 28.3401 28.9951H25.0301C24.8654 28.9943 24.7034 28.9527 24.5586 28.8742C24.4139 28.7957 24.2907 28.6827 24.2001 28.5451L23.1501 26.9851L20.9201 31.4451C20.8497 31.5863 20.7468 31.7089 20.6199 31.8027C20.493 31.8966 20.3458 31.9591 20.1901 31.9851H20.0301C19.8978 31.9846 19.7669 31.9578 19.645 31.9063C19.5232 31.8548 19.4127 31.7796 19.3201 31.6851L16.6101 28.9851H13.7001C13.5161 28.6611 13.3494 28.3278 13.2001 27.9851C13.0453 27.6632 12.9182 27.3286 12.8201 26.9851H17.0301C17.1617 26.9844 17.2922 27.0096 17.414 27.0593C17.5358 27.1091 17.6467 27.1824 17.7401 27.2751L19.7401 29.2751L22.1201 24.5151C22.1992 24.3575 22.3186 24.2236 22.4661 24.127C22.6136 24.0305 22.784 23.9746 22.9601 23.9651C23.1339 23.9546 23.3075 23.9897 23.4636 24.0669C23.6197 24.144 23.7529 24.2606 23.8501 24.4051L25.5501 26.9651H29.2501C29.1408 27.3518 28.9974 27.7251 28.8201 28.0851Z" fill="#DEB400"/>
<defs>
<linearGradient id="paint0_linear_1_778" x1="58" y1="0" x2="58" y2="140" gradientUnits="userSpaceOnUse">
<stop stop-color="white" stop-opacity="0"/>
<stop offset="1" stop-color="#FFEFAB" stop-opacity="0.2"/>
</linearGradient>
<linearGradient id="paint1_linear_1_778" x1="116" y1="70" x2="0" y2="70" gradientUnits="userSpaceOnUse">
<stop stop-color="white" stop-opacity="0"/>
<stop offset="1" stop-color="#FFEFAB" stop-opacity="0.55"/>
</linearGradient>
</defs>
</svg>
