<svg width="116" height="140" viewBox="0 0 116 140" fill="none" xmlns="http://www.w3.org/2000/svg">
<rect x="0.5" y="0.5" width="115" height="139" rx="7.5" fill="url(#paint0_linear_1_784)"/>
<rect x="0.5" y="0.5" width="115" height="139" rx="7.5" stroke="url(#paint1_linear_1_784)"/>
<path d="M8.12891 65H6.86914V57.9541H11.3613V59.043H8.12891V61.0938H11.083V62.1436H8.12891V65ZM17.9326 65L17.3369 63.1982H14.7441L14.1387 65H12.8643L15.3643 57.9541H16.7803L19.2852 65H17.9326ZM16.0039 59.2969L15.0371 62.2021H17.0439L16.0869 59.2969H16.0039ZM21.1738 63.0859H22.4043C22.4434 63.4017 22.6077 63.654 22.8975 63.8428C23.1872 64.0283 23.555 64.1211 24.001 64.1211C24.4176 64.1211 24.7594 64.0267 25.0264 63.8379C25.2965 63.6458 25.4316 63.4017 25.4316 63.1055C25.4316 62.8516 25.3291 62.6449 25.124 62.4854C24.9222 62.3258 24.5951 62.194 24.1426 62.0898L23.2295 61.8799C22.5915 61.7367 22.1178 61.5039 21.8086 61.1816C21.5026 60.8561 21.3496 60.4313 21.3496 59.9072C21.3496 59.266 21.5889 58.7516 22.0674 58.3643C22.5492 57.9736 23.1839 57.7783 23.9717 57.7783C24.7106 57.7783 25.3226 57.9704 25.8076 58.3545C26.2926 58.7386 26.5498 59.2334 26.5791 59.8389H25.373C25.3307 59.5296 25.1826 59.2839 24.9287 59.1016C24.6748 58.9193 24.3542 58.8281 23.9668 58.8281C23.5599 58.8281 23.2327 58.9193 22.9854 59.1016C22.7412 59.2806 22.6191 59.5199 22.6191 59.8193C22.6191 60.057 22.7152 60.2507 22.9072 60.4004C23.0993 60.5469 23.4134 60.6706 23.8496 60.7715L24.6602 60.957C25.373 61.1165 25.889 61.3542 26.208 61.6699C26.5303 61.9857 26.6914 62.4121 26.6914 62.9492C26.6914 63.6361 26.4424 64.1797 25.9443 64.5801C25.4495 64.9772 24.7757 65.1758 23.9229 65.1758C23.1156 65.1758 22.4629 64.987 21.9648 64.6094C21.4701 64.2318 21.2064 63.724 21.1738 63.0859ZM32.1201 65H30.8604V59.043H28.6924V57.9541H34.293V59.043H32.1201V65ZM37.8711 65H36.6113V57.9541H37.8711V65ZM41.8252 65H40.6094V57.9541H41.7031L45.1602 62.7441H45.2432V57.9541H46.4541V65H45.3652L41.9082 60.2051H41.8252V65ZM55.291 62.1777C55.291 63.0924 55.0127 63.8216 54.4561 64.3652C53.8994 64.9056 53.1507 65.1758 52.21 65.1758C51.1878 65.1758 50.3805 64.8454 49.7881 64.1846C49.1956 63.5205 48.8994 62.6172 48.8994 61.4746C48.8994 60.3483 49.1973 59.4515 49.793 58.7842C50.3887 58.1136 51.1878 57.7783 52.1904 57.7783C53.0042 57.7783 53.6862 57.9932 54.2363 58.4229C54.7865 58.8525 55.1185 59.4271 55.2324 60.1465H53.9775C53.8506 59.7461 53.6325 59.4385 53.3232 59.2236C53.0173 59.0088 52.6396 58.9014 52.1904 58.9014C51.5752 58.9014 51.0869 59.1309 50.7256 59.5898C50.3675 60.0488 50.1885 60.6738 50.1885 61.4648C50.1885 62.2656 50.3708 62.8971 50.7354 63.3594C51.1032 63.8216 51.6012 64.0527 52.2295 64.0527C52.7666 64.0527 53.2028 63.903 53.5381 63.6035C53.8734 63.304 54.0459 62.9118 54.0557 62.4268L54.0605 62.2803H52.3662V61.2939H55.291V62.1777Z" fill="#216FED"/>
<path d="M11.6055 91V89.1611H6.78613V87.5889C7.58822 86.1123 8.92806 83.9613 10.8057 81.1357H13.2939V87.6709H14.627V89.1611H13.2939V91H11.6055ZM8.41992 87.6094V87.7119H11.6328V82.5713H11.5371C10.4707 84.1481 9.43164 85.8275 8.41992 87.6094ZM22.8235 88.4229H22.7073L21.1761 91H19.3509L21.7708 87.2881L19.3304 83.5215H21.2923L22.7825 86.0918H22.8987L24.3753 83.5215H26.2415L23.8284 87.2197L26.2688 91H24.3548L22.8235 88.4229ZM33.5972 91V82.9131H33.481L31.0269 84.6357V82.9404L33.6041 81.1357H35.3609V91H33.5972ZM41.7971 91.2393C41.0725 91.2393 40.4322 91.0729 39.8762 90.7402C39.3202 90.4076 38.8781 89.9245 38.55 89.291C38.0852 88.4707 37.8527 87.4316 37.8527 86.1738C37.8527 84.515 38.2036 83.2207 38.9055 82.291C39.6118 81.3568 40.5939 80.8896 41.8518 80.8896C42.7495 80.8896 43.5152 81.1357 44.1486 81.6279C44.7867 82.1156 45.1786 82.765 45.3244 83.5762H43.5607C43.4514 83.2025 43.2417 82.9085 42.9318 82.6943C42.6265 82.4756 42.2619 82.3662 41.8381 82.3662C41.118 82.3662 40.5552 82.6852 40.1496 83.3232C39.744 83.9567 39.5412 84.8385 39.5412 85.9688H39.6574C39.8898 85.4993 40.2294 85.137 40.676 84.8818C41.1226 84.6221 41.6353 84.4922 42.2141 84.4922C43.1529 84.4922 43.9276 84.8021 44.5383 85.4219C45.1535 86.0417 45.4611 86.8255 45.4611 87.7734C45.4611 88.7897 45.1171 89.6214 44.4289 90.2686C43.7453 90.9157 42.868 91.2393 41.7971 91.2393ZM41.7766 89.7695C42.3326 89.7695 42.7974 89.585 43.1711 89.2158C43.5448 88.8421 43.7316 88.3796 43.7316 87.8281C43.7316 87.263 43.5493 86.8005 43.1848 86.4404C42.8202 86.0758 42.3553 85.8936 41.7902 85.8936C41.2251 85.8936 40.758 86.0736 40.3889 86.4336C40.0197 86.7936 39.8352 87.2493 39.8352 87.8008C39.8352 88.3613 40.0197 88.8307 40.3889 89.209C40.7626 89.5827 41.2251 89.7695 41.7766 89.7695ZM47.2967 91V80.6299H48.9647V84.7314H49.0877C49.2655 84.3076 49.5503 83.9772 49.9422 83.7402C50.3342 83.5033 50.8058 83.3848 51.3573 83.3848C52.1639 83.3848 52.7928 83.6286 53.244 84.1162C53.6997 84.6038 53.9276 85.2897 53.9276 86.1738V91H52.2323V86.5771C52.2323 86.012 52.1047 85.5859 51.8495 85.2988C51.5942 85.0072 51.2205 84.8613 50.7284 84.8613C50.1815 84.8613 49.7554 85.0254 49.45 85.3535C49.1447 85.6771 48.992 86.1123 48.992 86.6592V91H47.2967ZM8.98047 107H7.2168V97.1357H13.5059V98.6602H8.98047V101.531H13.1162V103.001H8.98047V107ZM17.3034 105.79C17.8138 105.79 18.2399 105.644 18.5817 105.353C18.9235 105.056 19.0944 104.692 19.0944 104.259V103.664L17.4059 103.773C16.4762 103.833 16.0114 104.17 16.0114 104.785C16.0114 105.095 16.1299 105.341 16.3668 105.523C16.6084 105.701 16.9205 105.79 17.3034 105.79ZM16.8043 107.123C16.0752 107.123 15.4804 106.918 15.0202 106.508C14.5599 106.098 14.3297 105.555 14.3297 104.881C14.3297 104.206 14.5735 103.678 15.0612 103.295C15.5534 102.912 16.2552 102.693 17.1666 102.639L19.0944 102.522V101.894C19.0944 101.524 18.9736 101.242 18.7321 101.046C18.4905 100.85 18.1419 100.752 17.6862 100.752C17.2942 100.752 16.9707 100.82 16.7155 100.957C16.4603 101.089 16.2939 101.281 16.2164 101.531H14.6168C14.6852 100.87 15.0042 100.346 15.5739 99.959C16.1481 99.5671 16.8795 99.3711 17.7682 99.3711C18.7252 99.3711 19.4635 99.5921 19.983 100.034C20.5071 100.476 20.7692 101.096 20.7692 101.894V107H19.1354V105.975H19.0192C18.8095 106.335 18.5088 106.617 18.1168 106.822C17.7295 107.023 17.292 107.123 16.8043 107.123ZM22.5022 101.661C22.5022 100.987 22.7802 100.438 23.3362 100.014C23.8922 99.5853 24.6123 99.3711 25.4964 99.3711C26.385 99.3711 27.0937 99.5602 27.6223 99.9385C28.1555 100.312 28.4518 100.839 28.511 101.518H26.9182C26.8544 101.249 26.6995 101.039 26.4534 100.889C26.2119 100.734 25.8951 100.656 25.5032 100.656C25.1113 100.656 24.7877 100.741 24.5325 100.909C24.2773 101.078 24.1497 101.297 24.1497 101.565C24.1497 101.775 24.2386 101.948 24.4163 102.085C24.5986 102.222 24.8789 102.333 25.2571 102.42L26.5764 102.721C27.2965 102.885 27.8251 103.129 28.1624 103.452C28.4996 103.776 28.6682 104.211 28.6682 104.758C28.6682 105.473 28.372 106.052 27.7796 106.494C27.1871 106.932 26.4215 107.15 25.4827 107.15C24.5485 107.15 23.8011 106.959 23.2405 106.576C22.6845 106.193 22.3746 105.662 22.3108 104.983H23.9856C24.0677 105.266 24.2386 105.485 24.4983 105.64C24.7626 105.79 25.1044 105.865 25.5237 105.865C25.9521 105.865 26.3007 105.781 26.5696 105.612C26.8385 105.439 26.9729 105.214 26.9729 104.936C26.9729 104.521 26.6289 104.238 25.9407 104.088L24.6145 103.78C23.8945 103.616 23.3613 103.363 23.0149 103.021C22.6731 102.675 22.5022 102.222 22.5022 101.661ZM30.7294 97.6895H32.4179V99.5693H34.0175V100.923H32.4179V104.594C32.4179 104.963 32.4999 105.234 32.664 105.407C32.828 105.576 33.0878 105.66 33.4433 105.66C33.5982 105.66 33.7896 105.649 34.0175 105.626V106.952C33.7349 107.007 33.4387 107.034 33.1288 107.034C32.2721 107.034 31.6568 106.877 31.2831 106.562C30.914 106.248 30.7294 105.729 30.7294 105.004V100.923H29.5468V99.5693H30.7294V97.6895ZM35.3062 101.661C35.3062 100.987 35.5842 100.438 36.1402 100.014C36.6962 99.5853 37.4162 99.3711 38.3004 99.3711C39.189 99.3711 39.8977 99.5602 40.4263 99.9385C40.9595 100.312 41.2558 100.839 41.315 101.518H39.7222C39.6584 101.249 39.5035 101.039 39.2574 100.889C39.0158 100.734 38.6991 100.656 38.3072 100.656C37.9153 100.656 37.5917 100.741 37.3365 100.909C37.0813 101.078 36.9537 101.297 36.9537 101.565C36.9537 101.775 37.0425 101.948 37.2203 102.085C37.4026 102.222 37.6828 102.333 38.0611 102.42L39.3804 102.721C40.1005 102.885 40.6291 103.129 40.9664 103.452C41.3036 103.776 41.4722 104.211 41.4722 104.758C41.4722 105.473 41.176 106.052 40.5836 106.494C39.9911 106.932 39.2255 107.15 38.2867 107.15C37.3524 107.15 36.605 106.959 36.0445 106.576C35.4885 106.193 35.1786 105.662 35.1148 104.983H36.7896C36.8716 105.266 37.0425 105.485 37.3023 105.64C37.5666 105.79 37.9084 105.865 38.3277 105.865C38.7561 105.865 39.1047 105.781 39.3736 105.612C39.6425 105.439 39.7769 105.214 39.7769 104.936C39.7769 104.521 39.4328 104.238 38.7447 104.088L37.4185 103.78C36.6985 103.616 36.1653 103.363 35.8189 103.021C35.4771 102.675 35.3062 102.222 35.3062 101.661Z" fill="#1E1E1E"/>
<path d="M7.89941 128H6.88379V120.954H8.16309L10.4043 126.306H10.4873L12.7334 120.954H14.0127V128H12.9971V122.912H12.9287L10.8633 127.795H10.0332L7.96777 122.912H7.89941V128ZM17.0965 127.204C17.4904 127.204 17.8175 127.093 18.0779 126.872C18.3416 126.651 18.4734 126.374 18.4734 126.042V125.598L17.1746 125.681C16.81 125.703 16.5415 125.778 16.3689 125.905C16.1964 126.032 16.1102 126.213 16.1102 126.447C16.1102 126.682 16.2013 126.867 16.3836 127.004C16.5659 127.137 16.8035 127.204 17.0965 127.204ZM16.8279 128.088C16.3071 128.088 15.8807 127.943 15.5486 127.653C15.2199 127.36 15.0555 126.975 15.0555 126.496C15.0555 126.021 15.2264 125.648 15.5682 125.378C15.91 125.104 16.3982 124.948 17.033 124.909L18.4734 124.826V124.367C18.4734 124.084 18.3807 123.868 18.1951 123.718C18.0096 123.565 17.7394 123.488 17.3846 123.488C17.0916 123.488 16.8475 123.54 16.6521 123.645C16.4601 123.745 16.3348 123.89 16.2762 124.079H15.2605C15.3126 123.623 15.5356 123.26 15.9295 122.99C16.3266 122.717 16.8279 122.58 17.4334 122.58C18.0975 122.58 18.6102 122.738 18.9715 123.054C19.3361 123.366 19.5184 123.804 19.5184 124.367V128H18.5076V127.253H18.4246C18.2651 127.52 18.0454 127.727 17.7654 127.873C17.4887 128.016 17.1762 128.088 16.8279 128.088ZM20.7125 128V122.683H21.7232V123.498H21.8014C21.8762 123.234 22.0471 123.018 22.3141 122.849C22.5842 122.679 22.8919 122.595 23.2369 122.595C23.4355 122.595 23.5917 122.609 23.7057 122.639V123.674C23.5787 123.632 23.3834 123.61 23.1197 123.61C22.7193 123.61 22.3922 123.726 22.1383 123.957C21.8876 124.188 21.7623 124.489 21.7623 124.86V128H20.7125ZM28.5402 128V122.131H28.4572L26.6896 123.381V122.263L28.5451 120.954H29.634V128H28.5402ZM31.3262 122.99C31.3262 122.342 31.5475 121.813 31.9902 121.403C32.4329 120.99 33.001 120.783 33.6943 120.783C34.3649 120.783 34.9199 120.974 35.3594 121.354C35.7988 121.735 36.0186 122.215 36.0186 122.795C36.0186 123.169 35.9079 123.54 35.6865 123.908C35.4684 124.273 35.0648 124.753 34.4756 125.349L32.9082 126.936V127.019H36.1309V128H31.3848V127.209L33.7676 124.729C34.2363 124.24 34.5488 123.872 34.7051 123.625C34.8613 123.374 34.9395 123.119 34.9395 122.858C34.9395 122.536 34.8174 122.268 34.5732 122.053C34.3291 121.838 34.0247 121.73 33.6602 121.73C33.2728 121.73 32.9587 121.846 32.7178 122.077C32.4801 122.308 32.3613 122.613 32.3613 122.99V123.005H31.3262V122.99ZM42.9234 125.676H39.7203V124.646H42.9234V125.676ZM47.7385 128H46.7229V120.954H48.0021L50.2434 126.306H50.3264L52.5725 120.954H53.8518V128H52.8361V122.912H52.7678L50.7023 127.795H49.8723L47.8068 122.912H47.7385V128ZM56.9355 127.204C57.3294 127.204 57.6566 127.093 57.917 126.872C58.1807 126.651 58.3125 126.374 58.3125 126.042V125.598L57.0137 125.681C56.6491 125.703 56.3805 125.778 56.208 125.905C56.0355 126.032 55.9492 126.213 55.9492 126.447C55.9492 126.682 56.0404 126.867 56.2227 127.004C56.4049 127.137 56.6426 127.204 56.9355 127.204ZM56.667 128.088C56.1462 128.088 55.7197 127.943 55.3877 127.653C55.0589 127.36 54.8945 126.975 54.8945 126.496C54.8945 126.021 55.0654 125.648 55.4072 125.378C55.749 125.104 56.2373 124.948 56.8721 124.909L58.3125 124.826V124.367C58.3125 124.084 58.2197 123.868 58.0342 123.718C57.8486 123.565 57.5785 123.488 57.2236 123.488C56.9307 123.488 56.6865 123.54 56.4912 123.645C56.2992 123.745 56.1738 123.89 56.1152 124.079H55.0996C55.1517 123.623 55.3747 123.26 55.7686 122.99C56.1657 122.717 56.667 122.58 57.2725 122.58C57.9365 122.58 58.4492 122.738 58.8105 123.054C59.1751 123.366 59.3574 123.804 59.3574 124.367V128H58.3467V127.253H58.2637C58.1042 127.52 57.8844 127.727 57.6045 127.873C57.3278 128.016 57.0153 128.088 56.667 128.088ZM60.5516 128V122.683H61.5623V123.498H61.6404C61.7153 123.234 61.8862 123.018 62.1531 122.849C62.4233 122.679 62.7309 122.595 63.076 122.595C63.2745 122.595 63.4308 122.609 63.5447 122.639V123.674C63.4178 123.632 63.2225 123.61 62.9588 123.61C62.5584 123.61 62.2313 123.726 61.9773 123.957C61.7267 124.188 61.6014 124.489 61.6014 124.86V128H60.5516ZM68.2279 124.836V123.933H69.0824C69.46 123.933 69.7676 123.828 70.0053 123.62C70.2429 123.412 70.3617 123.142 70.3617 122.81C70.3617 122.481 70.2462 122.219 70.015 122.023C69.7839 121.825 69.4763 121.726 69.0922 121.726C68.7081 121.726 68.3972 121.825 68.1596 122.023C67.9252 122.222 67.7934 122.495 67.7641 122.844H66.724C66.7598 122.206 66.9926 121.703 67.4223 121.335C67.852 120.967 68.42 120.783 69.1264 120.783C69.7807 120.783 70.3292 120.962 70.7719 121.32C71.2178 121.675 71.4408 122.118 71.4408 122.648C71.4408 123.062 71.3269 123.415 71.099 123.708C70.8744 124.001 70.5684 124.191 70.1811 124.279V124.362C70.6596 124.418 71.0372 124.6 71.3139 124.909C71.5906 125.215 71.7289 125.604 71.7289 126.076C71.7289 126.47 71.6166 126.826 71.392 127.146C71.1674 127.465 70.8565 127.715 70.4594 127.897C70.0655 128.08 69.6277 128.171 69.1459 128.171C68.407 128.171 67.8031 127.98 67.3344 127.6C66.8689 127.219 66.6199 126.714 66.5873 126.086H67.6371C67.6729 126.428 67.8259 126.7 68.0961 126.901C68.3695 127.103 68.7195 127.204 69.1459 127.204C69.5756 127.204 69.9271 127.093 70.2006 126.872C70.474 126.651 70.6107 126.366 70.6107 126.018C70.6107 125.653 70.4773 125.365 70.2104 125.153C69.9434 124.942 69.5788 124.836 69.1166 124.836H68.2279ZM75.2863 128.171C74.4628 128.171 73.8215 127.847 73.3625 127.199C72.9068 126.551 72.6789 125.642 72.6789 124.47C72.6789 123.308 72.9084 122.403 73.3674 121.755C73.8264 121.107 74.466 120.783 75.2863 120.783C76.1001 120.783 76.7365 121.109 77.1955 121.76C77.6545 122.408 77.884 123.314 77.884 124.479C77.884 125.648 77.6561 126.556 77.2004 127.204C76.7447 127.849 76.1066 128.171 75.2863 128.171ZM74.173 126.506C74.4335 126.978 74.8046 127.214 75.2863 127.214C75.7681 127.214 76.1376 126.979 76.3947 126.511C76.6519 126.039 76.7805 125.358 76.7805 124.47C76.7805 123.591 76.6503 122.917 76.3898 122.448C76.1294 121.976 75.7616 121.74 75.2863 121.74C74.8111 121.74 74.4416 121.976 74.1779 122.448C73.9143 122.92 73.7824 123.594 73.7824 124.47C73.7824 125.355 73.9126 126.034 74.173 126.506Z" fill="#78797A"/>
<circle cx="22" cy="26" r="16" fill="white"/>
<circle cx="22" cy="26" r="15.5" stroke="white" stroke-opacity="0.12"/>
<path fill-rule="evenodd" clip-rule="evenodd" d="M18.0314 18.152C18.0314 17.0995 18.4496 16.09 19.1938 15.3458C19.9381 14.6015 20.9475 14.1834 22 14.1834C23.0525 14.1834 24.062 14.6015 24.8062 15.3458C25.5505 16.09 25.9686 17.0995 25.9686 18.152C25.9686 19.2045 25.5505 20.2139 24.8062 20.9582C24.062 21.7024 23.0525 22.1206 22 22.1206C20.9475 22.1206 19.9381 21.7024 19.1938 20.9582C18.4496 20.2139 18.0314 19.2045 18.0314 18.152ZM14.1932 24.6526C15.001 23.8857 16.0724 23.4581 17.1863 23.4581C18.3002 23.4581 19.3716 23.8857 20.1794 24.6526L20.1966 24.6697L22 26.4731L23.8052 24.6697L23.8223 24.6526C24.63 23.8867 25.7006 23.4597 26.8137 23.4597C27.9268 23.4597 28.9975 23.8867 29.8052 24.6526C30.2059 25.0333 30.5251 25.4915 30.7434 25.9993C30.9616 26.5072 31.0744 27.0541 31.0749 27.6069C31.0754 28.1597 30.9636 28.7068 30.7462 29.215C30.5288 29.7232 30.2104 30.182 29.8103 30.5634L22.5966 37.5748C22.4366 37.7304 22.2223 37.8173 21.9992 37.8173C21.776 37.8173 21.5617 37.7304 21.4017 37.5748L14.1897 30.5634C13.7898 30.1821 13.4715 29.7236 13.2541 29.2155C13.0367 28.7075 12.9248 28.1607 12.9251 27.6081C12.9255 27.0555 13.038 26.5088 13.256 26.001C13.474 25.4933 13.7928 25.0334 14.1932 24.6526Z" fill="#216FED"/>
<defs>
<linearGradient id="paint0_linear_1_784" x1="58" y1="0" x2="58" y2="140" gradientUnits="userSpaceOnUse">
<stop stop-color="white" stop-opacity="0"/>
<stop offset="1" stop-color="#2477FF" stop-opacity="0.2"/>
</linearGradient>
<linearGradient id="paint1_linear_1_784" x1="116" y1="70" x2="0" y2="70" gradientUnits="userSpaceOnUse">
<stop stop-color="white" stop-opacity="0"/>
<stop offset="1" stop-color="#216FED" stop-opacity="0.2"/>
</linearGradient>
</defs>
</svg>
