<svg width="105" height="140" viewBox="0 0 105 140" fill="none" xmlns="http://www.w3.org/2000/svg">
<rect x="0.5" y="0.5" width="115" height="139" rx="7.5" fill="url(#paint0_linear_1_790)"/>
<rect x="0.5" y="0.5" width="115" height="139" rx="7.5" stroke="url(#paint1_linear_1_790)"/>
<path d="M11.6689 63.8965V65H7.17676V57.9541H8.43652V63.8965H11.6689ZM15.2861 65H14.0264V57.9541H15.2861V65ZM19.2842 65H18.0244V57.9541H22.5166V59.043H19.2842V61.0938H22.2383V62.1436H19.2842V65ZM27.9258 65H26.666V59.043H24.498V57.9541H30.0986V59.043H27.9258V65ZM33.6768 65H32.417V57.9541H33.6768V65ZM37.6309 65H36.415V57.9541H37.5088L40.9658 62.7441H41.0488V57.9541H42.2598V65H41.1709L37.7139 60.2051H37.6309V65ZM51.0967 62.1777C51.0967 63.0924 50.8184 63.8216 50.2617 64.3652C49.7051 64.9056 48.9564 65.1758 48.0156 65.1758C46.9935 65.1758 46.1862 64.8454 45.5938 64.1846C45.0013 63.5205 44.7051 62.6172 44.7051 61.4746C44.7051 60.3483 45.0029 59.4515 45.5986 58.7842C46.1943 58.1136 46.9935 57.7783 47.9961 57.7783C48.8099 57.7783 49.4919 57.9932 50.042 58.4229C50.5921 58.8525 50.9242 59.4271 51.0381 60.1465H49.7832C49.6562 59.7461 49.4382 59.4385 49.1289 59.2236C48.8229 59.0088 48.4453 58.9014 47.9961 58.9014C47.3809 58.9014 46.8926 59.1309 46.5312 59.5898C46.1732 60.0488 45.9941 60.6738 45.9941 61.4648C45.9941 62.2656 46.1764 62.8971 46.541 63.3594C46.9089 63.8216 47.4069 64.0527 48.0352 64.0527C48.5723 64.0527 49.0085 63.903 49.3438 63.6035C49.679 63.304 49.8516 62.9118 49.8613 62.4268L49.8662 62.2803H48.1719V61.2939H51.0967V62.1777Z" fill="#9747FF"/>
<path d="M15.748 87.0488C15.748 88.3294 15.3584 89.3503 14.5791 90.1113C13.7998 90.8678 12.7516 91.2461 11.4346 91.2461C10.0036 91.2461 8.87337 90.7835 8.04395 89.8584C7.21452 88.9287 6.7998 87.6641 6.7998 86.0645C6.7998 84.4876 7.2168 83.2321 8.05078 82.2979C8.88477 81.359 10.0036 80.8896 11.4072 80.8896C12.5465 80.8896 13.5013 81.1904 14.2715 81.792C15.0417 82.3936 15.5065 83.1979 15.666 84.2051H13.9092C13.7314 83.6445 13.4261 83.2139 12.9932 82.9131C12.5648 82.6123 12.0361 82.4619 11.4072 82.4619C10.5459 82.4619 9.8623 82.7832 9.35645 83.4258C8.85514 84.0684 8.60449 84.9434 8.60449 86.0508C8.60449 87.1719 8.8597 88.056 9.37012 88.7031C9.88509 89.3503 10.5824 89.6738 11.4619 89.6738C12.2139 89.6738 12.8245 89.4642 13.2939 89.0449C13.7633 88.6257 14.0049 88.0765 14.0186 87.3975L14.0254 87.1924H11.6533V85.8115H15.748V87.0488ZM19.9967 89.79C20.5071 89.79 20.9332 89.6442 21.275 89.3525C21.6168 89.0563 21.7877 88.6917 21.7877 88.2588V87.6641L20.0993 87.7734C19.1696 87.8327 18.7047 88.1699 18.7047 88.7852C18.7047 89.0951 18.8232 89.3411 19.0602 89.5234C19.3017 89.7012 19.6139 89.79 19.9967 89.79ZM19.4977 91.123C18.7685 91.123 18.1738 90.918 17.7135 90.5078C17.2532 90.0977 17.0231 89.5553 17.0231 88.8809C17.0231 88.2064 17.2669 87.6777 17.7545 87.2949C18.2467 86.9121 18.9485 86.6934 19.86 86.6387L21.7877 86.5225V85.8936C21.7877 85.5244 21.667 85.2419 21.4254 85.0459C21.1839 84.8499 20.8353 84.752 20.3795 84.752C19.9876 84.752 19.664 84.8203 19.4088 84.957C19.1536 85.0892 18.9873 85.2806 18.9098 85.5312H17.3102C17.3786 84.8704 17.6976 84.3464 18.2672 83.959C18.8414 83.5671 19.5729 83.3711 20.4616 83.3711C21.4186 83.3711 22.1569 83.5921 22.6764 84.0342C23.2005 84.4762 23.4625 85.096 23.4625 85.8936V91H21.8287V89.9746H21.7125C21.5029 90.3346 21.2021 90.6172 20.8102 90.8223C20.4228 91.0228 19.9853 91.123 19.4977 91.123ZM25.387 91V83.5215H27.0755V91H25.387ZM26.2278 82.3047C25.9225 82.3047 25.6718 82.2181 25.4759 82.0449C25.2799 81.8672 25.1819 81.6416 25.1819 81.3682C25.1819 81.0947 25.2799 80.8714 25.4759 80.6982C25.6718 80.5205 25.9225 80.4316 26.2278 80.4316C26.5377 80.4316 26.7884 80.5205 26.9798 80.6982C27.1757 80.8714 27.2737 81.0947 27.2737 81.3682C27.2737 81.6416 27.1757 81.8672 26.9798 82.0449C26.7884 82.2181 26.5377 82.3047 26.2278 82.3047ZM29.0409 91V83.5215H30.6747V84.7178H30.7909C30.9732 84.2894 31.2512 83.959 31.6249 83.7266C32.0032 83.4896 32.4657 83.3711 33.0126 83.3711C33.842 83.3711 34.4778 83.6126 34.9198 84.0957C35.3665 84.5788 35.5898 85.2669 35.5898 86.1602V91H33.8945V86.5635C33.8945 85.4196 33.3909 84.8477 32.3837 84.8477C31.8779 84.8477 31.4768 85.0094 31.1806 85.333C30.8844 85.6566 30.7362 86.0941 30.7362 86.6455V91H29.0409ZM41.592 81.6895H43.2805V83.5693H44.8801V84.9229H43.2805V88.5938C43.2805 88.9629 43.3625 89.234 43.5266 89.4072C43.6906 89.5758 43.9504 89.6602 44.3059 89.6602C44.4608 89.6602 44.6522 89.6488 44.8801 89.626V90.9521C44.5975 91.0068 44.3013 91.0342 43.9914 91.0342C43.1346 91.0342 42.5194 90.877 42.1457 90.5625C41.7766 90.248 41.592 89.7285 41.592 89.0039V84.9229H40.4094V83.5693H41.592V81.6895ZM46.5037 91V80.6299H48.1717V84.7314H48.2948C48.4725 84.3076 48.7573 83.9772 49.1493 83.7402C49.5412 83.5033 50.0129 83.3848 50.5643 83.3848C51.3709 83.3848 51.9998 83.6286 52.451 84.1162C52.9067 84.6038 53.1346 85.2897 53.1346 86.1738V91H51.4393V86.5771C51.4393 86.012 51.3117 85.5859 51.0565 85.2988C50.8013 85.0072 50.4276 84.8613 49.9354 84.8613C49.3885 84.8613 48.9624 85.0254 48.6571 85.3535C48.3517 85.6771 48.1991 86.1123 48.1991 86.6592V91H46.5037ZM57.561 89.79C58.0714 89.79 58.4975 89.6442 58.8393 89.3525C59.1811 89.0563 59.352 88.6917 59.352 88.2588V87.6641L57.6636 87.7734C56.7339 87.8327 56.269 88.1699 56.269 88.7852C56.269 89.0951 56.3875 89.3411 56.6245 89.5234C56.866 89.7012 57.1782 89.79 57.561 89.79ZM57.062 91.123C56.3328 91.123 55.7381 90.918 55.2778 90.5078C54.8175 90.0977 54.5874 89.5553 54.5874 88.8809C54.5874 88.2064 54.8312 87.6777 55.3188 87.2949C55.811 86.9121 56.5128 86.6934 57.4243 86.6387L59.352 86.5225V85.8936C59.352 85.5244 59.2313 85.2419 58.9897 85.0459C58.7482 84.8499 58.3996 84.752 57.9438 84.752C57.5519 84.752 57.2283 84.8203 56.9731 84.957C56.7179 85.0892 56.5516 85.2806 56.4741 85.5312H54.8745C54.9429 84.8704 55.2619 84.3464 55.8315 83.959C56.4057 83.5671 57.1372 83.3711 58.0259 83.3711C58.9829 83.3711 59.7212 83.5921 60.2407 84.0342C60.7648 84.4762 61.0268 85.096 61.0268 85.8936V91H59.393V89.9746H59.2768C59.0672 90.3346 58.7664 90.6172 58.3745 90.8223C57.9871 91.0228 57.5496 91.123 57.062 91.123ZM63.4708 81.6895H65.1593V83.5693H66.7589V84.9229H65.1593V88.5938C65.1593 88.9629 65.2413 89.234 65.4054 89.4072C65.5695 89.5758 65.8292 89.6602 66.1847 89.6602C66.3396 89.6602 66.531 89.6488 66.7589 89.626V90.9521C66.4764 91.0068 66.1801 91.0342 65.8702 91.0342C65.0135 91.0342 64.3982 90.877 64.0245 90.5625C63.6554 90.248 63.4708 89.7285 63.4708 89.0039V84.9229H62.2882V83.5693H63.4708V81.6895ZM8.85742 107H7.2168V97.1357H9.28125L12.248 104.32H12.3711L15.3379 97.1357H17.4023V107H15.7617V100.062H15.666L12.9385 106.617H11.6807L8.95312 100.062H8.85742V107ZM26.026 99.5215V107H24.3922V105.811H24.276C23.8978 106.704 23.1526 107.15 22.0407 107.15C21.2249 107.15 20.5892 106.909 20.1334 106.426C19.6777 105.938 19.4498 105.257 19.4498 104.382V99.5215H21.1452V103.958C21.1452 104.532 21.2659 104.961 21.5075 105.243C21.749 105.521 22.1227 105.66 22.6286 105.66C23.1754 105.66 23.5947 105.503 23.8864 105.188C24.1826 104.874 24.3307 104.437 24.3307 103.876V99.5215H26.026ZM27.7932 101.661C27.7932 100.987 28.0712 100.438 28.6272 100.014C29.1832 99.5853 29.9033 99.3711 30.7874 99.3711C31.6761 99.3711 32.3847 99.5602 32.9134 99.9385C33.4466 100.312 33.7428 100.839 33.802 101.518H32.2093C32.1455 101.249 31.9905 101.039 31.7444 100.889C31.5029 100.734 31.1861 100.656 30.7942 100.656C30.4023 100.656 30.0787 100.741 29.8235 100.909C29.5683 101.078 29.4407 101.297 29.4407 101.565C29.4407 101.775 29.5296 101.948 29.7073 102.085C29.8896 102.222 30.1699 102.333 30.5481 102.42L31.8675 102.721C32.5875 102.885 33.1162 103.129 33.4534 103.452C33.7906 103.776 33.9593 104.211 33.9593 104.758C33.9593 105.473 33.663 106.052 33.0706 106.494C32.4781 106.932 31.7125 107.15 30.7737 107.15C29.8395 107.15 29.0921 106.959 28.5315 106.576C27.9755 106.193 27.6656 105.662 27.6018 104.983H29.2766C29.3587 105.266 29.5296 105.485 29.7893 105.64C30.0537 105.79 30.3955 105.865 30.8147 105.865C31.2431 105.865 31.5917 105.781 31.8606 105.612C32.1295 105.439 32.2639 105.214 32.2639 104.936C32.2639 104.521 31.9199 104.238 31.2317 104.088L29.9055 103.78C29.1855 103.616 28.6523 103.363 28.3059 103.021C27.9641 102.675 27.7932 102.222 27.7932 101.661ZM41.995 102.037H40.3818C40.2997 101.659 40.1174 101.358 39.8349 101.135C39.5523 100.907 39.1855 100.793 38.7343 100.793C38.151 100.793 37.6952 101.007 37.3671 101.436C37.0435 101.864 36.8818 102.465 36.8818 103.24C36.8818 104.024 37.0458 104.635 37.3739 105.072C37.7021 105.51 38.1555 105.729 38.7343 105.729C39.1764 105.729 39.5387 105.626 39.8212 105.421C40.1083 105.216 40.2952 104.92 40.3818 104.532H41.995C41.8993 105.33 41.5644 105.965 40.9902 106.439C40.4205 106.913 39.6708 107.15 38.7411 107.15C37.6155 107.15 36.7382 106.806 36.1093 106.118C35.4804 105.43 35.1659 104.471 35.1659 103.24C35.1659 102.023 35.4804 101.076 36.1093 100.396C36.7382 99.7129 37.6132 99.3711 38.7343 99.3711C39.6731 99.3711 40.4273 99.6149 40.997 100.103C41.5712 100.586 41.9039 101.23 41.995 102.037ZM43.5435 107V96.6299H45.2388V107H43.5435ZM50.383 100.718C49.8771 100.718 49.4602 100.884 49.132 101.217C48.8039 101.549 48.6216 101.989 48.5852 102.536H52.1057C52.0874 101.98 51.9234 101.538 51.6135 101.21C51.3036 100.882 50.8934 100.718 50.383 100.718ZM52.1193 104.942H53.7258C53.5663 105.626 53.1903 106.166 52.5979 106.562C52.01 106.954 51.2785 107.15 50.4035 107.15C49.3052 107.15 48.4416 106.809 47.8127 106.125C47.1883 105.437 46.8762 104.491 46.8762 103.288C46.8762 102.085 47.1906 101.132 47.8195 100.431C48.4484 99.7243 49.3052 99.3711 50.3898 99.3711C51.4562 99.3711 52.2902 99.7061 52.8918 100.376C53.4979 101.041 53.801 101.964 53.801 103.145V103.691H48.5783V103.78C48.6011 104.405 48.7788 104.899 49.1115 105.264C49.4488 105.624 49.8954 105.804 50.4514 105.804C51.3081 105.804 51.8641 105.517 52.1193 104.942ZM55.1922 101.661C55.1922 100.987 55.4702 100.438 56.0262 100.014C56.5822 99.5853 57.3023 99.3711 58.1864 99.3711C59.075 99.3711 59.7837 99.5602 60.3123 99.9385C60.8455 100.312 61.1418 100.839 61.201 101.518H59.6082C59.5444 101.249 59.3895 101.039 59.1434 100.889C58.9019 100.734 58.5851 100.656 58.1932 100.656C57.8013 100.656 57.4777 100.741 57.2225 100.909C56.9673 101.078 56.8397 101.297 56.8397 101.565C56.8397 101.775 56.9286 101.948 57.1063 102.085C57.2886 102.222 57.5689 102.333 57.9471 102.42L59.2664 102.721C59.9865 102.885 60.5151 103.129 60.8524 103.452C61.1896 103.776 61.3582 104.211 61.3582 104.758C61.3582 105.473 61.062 106.052 60.4696 106.494C59.8771 106.932 59.1115 107.15 58.1727 107.15C57.2385 107.15 56.4911 106.959 55.9305 106.576C55.3745 106.193 55.0646 105.662 55.0008 104.983H56.6756C56.7577 105.266 56.9286 105.485 57.1883 105.64C57.4526 105.79 57.7944 105.865 58.2137 105.865C58.6421 105.865 58.9907 105.781 59.2596 105.612C59.5285 105.439 59.6629 105.214 59.6629 104.936C59.6629 104.521 59.3189 104.238 58.6307 104.088L57.3045 103.78C56.5845 103.616 56.0513 103.363 55.7049 103.021C55.3631 102.675 55.1922 102.222 55.1922 101.661Z" fill="#1E1E1E"/>
<path d="M7.89941 128H6.88379V120.954H8.16309L10.4043 126.306H10.4873L12.7334 120.954H14.0127V128H12.9971V122.912H12.9287L10.8633 127.795H10.0332L7.96777 122.912H7.89941V128ZM17.0965 127.204C17.4904 127.204 17.8175 127.093 18.0779 126.872C18.3416 126.651 18.4734 126.374 18.4734 126.042V125.598L17.1746 125.681C16.81 125.703 16.5415 125.778 16.3689 125.905C16.1964 126.032 16.1102 126.213 16.1102 126.447C16.1102 126.682 16.2013 126.867 16.3836 127.004C16.5659 127.137 16.8035 127.204 17.0965 127.204ZM16.8279 128.088C16.3071 128.088 15.8807 127.943 15.5486 127.653C15.2199 127.36 15.0555 126.975 15.0555 126.496C15.0555 126.021 15.2264 125.648 15.5682 125.378C15.91 125.104 16.3982 124.948 17.033 124.909L18.4734 124.826V124.367C18.4734 124.084 18.3807 123.868 18.1951 123.718C18.0096 123.565 17.7394 123.488 17.3846 123.488C17.0916 123.488 16.8475 123.54 16.6521 123.645C16.4601 123.745 16.3348 123.89 16.2762 124.079H15.2605C15.3126 123.623 15.5356 123.26 15.9295 122.99C16.3266 122.717 16.8279 122.58 17.4334 122.58C18.0975 122.58 18.6102 122.738 18.9715 123.054C19.3361 123.366 19.5184 123.804 19.5184 124.367V128H18.5076V127.253H18.4246C18.2651 127.52 18.0454 127.727 17.7654 127.873C17.4887 128.016 17.1762 128.088 16.8279 128.088ZM20.7125 128V122.683H21.7232V123.498H21.8014C21.8762 123.234 22.0471 123.018 22.3141 122.849C22.5842 122.679 22.8919 122.595 23.2369 122.595C23.4355 122.595 23.5917 122.609 23.7057 122.639V123.674C23.5787 123.632 23.3834 123.61 23.1197 123.61C22.7193 123.61 22.3922 123.726 22.1383 123.957C21.8876 124.188 21.7623 124.489 21.7623 124.86V128H20.7125ZM28.5402 128V122.131H28.4572L26.6896 123.381V122.263L28.5451 120.954H29.634V128H28.5402ZM31.3262 122.99C31.3262 122.342 31.5475 121.813 31.9902 121.403C32.4329 120.99 33.001 120.783 33.6943 120.783C34.3649 120.783 34.9199 120.974 35.3594 121.354C35.7988 121.735 36.0186 122.215 36.0186 122.795C36.0186 123.169 35.9079 123.54 35.6865 123.908C35.4684 124.273 35.0648 124.753 34.4756 125.349L32.9082 126.936V127.019H36.1309V128H31.3848V127.209L33.7676 124.729C34.2363 124.24 34.5488 123.872 34.7051 123.625C34.8613 123.374 34.9395 123.119 34.9395 122.858C34.9395 122.536 34.8174 122.268 34.5732 122.053C34.3291 121.838 34.0247 121.73 33.6602 121.73C33.2728 121.73 32.9587 121.846 32.7178 122.077C32.4801 122.308 32.3613 122.613 32.3613 122.99V123.005H31.3262V122.99ZM42.9234 125.676H39.7203V124.646H42.9234V125.676ZM47.7385 128H46.7229V120.954H48.0021L50.2434 126.306H50.3264L52.5725 120.954H53.8518V128H52.8361V122.912H52.7678L50.7023 127.795H49.8723L47.8068 122.912H47.7385V128ZM56.9355 127.204C57.3294 127.204 57.6566 127.093 57.917 126.872C58.1807 126.651 58.3125 126.374 58.3125 126.042V125.598L57.0137 125.681C56.6491 125.703 56.3805 125.778 56.208 125.905C56.0355 126.032 55.9492 126.213 55.9492 126.447C55.9492 126.682 56.0404 126.867 56.2227 127.004C56.4049 127.137 56.6426 127.204 56.9355 127.204ZM56.667 128.088C56.1462 128.088 55.7197 127.943 55.3877 127.653C55.0589 127.36 54.8945 126.975 54.8945 126.496C54.8945 126.021 55.0654 125.648 55.4072 125.378C55.749 125.104 56.2373 124.948 56.8721 124.909L58.3125 124.826V124.367C58.3125 124.084 58.2197 123.868 58.0342 123.718C57.8486 123.565 57.5785 123.488 57.2236 123.488C56.9307 123.488 56.6865 123.54 56.4912 123.645C56.2992 123.745 56.1738 123.89 56.1152 124.079H55.0996C55.1517 123.623 55.3747 123.26 55.7686 122.99C56.1657 122.717 56.667 122.58 57.2725 122.58C57.9365 122.58 58.4492 122.738 58.8105 123.054C59.1751 123.366 59.3574 123.804 59.3574 124.367V128H58.3467V127.253H58.2637C58.1042 127.52 57.8844 127.727 57.6045 127.873C57.3278 128.016 57.0153 128.088 56.667 128.088ZM60.5516 128V122.683H61.5623V123.498H61.6404C61.7153 123.234 61.8862 123.018 62.1531 122.849C62.4233 122.679 62.7309 122.595 63.076 122.595C63.2745 122.595 63.4308 122.609 63.5447 122.639V123.674C63.4178 123.632 63.2225 123.61 62.9588 123.61C62.5584 123.61 62.2313 123.726 61.9773 123.957C61.7267 124.188 61.6014 124.489 61.6014 124.86V128H60.5516ZM68.2279 124.836V123.933H69.0824C69.46 123.933 69.7676 123.828 70.0053 123.62C70.2429 123.412 70.3617 123.142 70.3617 122.81C70.3617 122.481 70.2462 122.219 70.015 122.023C69.7839 121.825 69.4763 121.726 69.0922 121.726C68.7081 121.726 68.3972 121.825 68.1596 122.023C67.9252 122.222 67.7934 122.495 67.7641 122.844H66.724C66.7598 122.206 66.9926 121.703 67.4223 121.335C67.852 120.967 68.42 120.783 69.1264 120.783C69.7807 120.783 70.3292 120.962 70.7719 121.32C71.2178 121.675 71.4408 122.118 71.4408 122.648C71.4408 123.062 71.3269 123.415 71.099 123.708C70.8744 124.001 70.5684 124.191 70.1811 124.279V124.362C70.6596 124.418 71.0372 124.6 71.3139 124.909C71.5906 125.215 71.7289 125.604 71.7289 126.076C71.7289 126.47 71.6166 126.826 71.392 127.146C71.1674 127.465 70.8565 127.715 70.4594 127.897C70.0655 128.08 69.6277 128.171 69.1459 128.171C68.407 128.171 67.8031 127.98 67.3344 127.6C66.8689 127.219 66.6199 126.714 66.5873 126.086H67.6371C67.6729 126.428 67.8259 126.7 68.0961 126.901C68.3695 127.103 68.7195 127.204 69.1459 127.204C69.5756 127.204 69.9271 127.093 70.2006 126.872C70.474 126.651 70.6107 126.366 70.6107 126.018C70.6107 125.653 70.4773 125.365 70.2104 125.153C69.9434 124.942 69.5788 124.836 69.1166 124.836H68.2279ZM75.2863 128.171C74.4628 128.171 73.8215 127.847 73.3625 127.199C72.9068 126.551 72.6789 125.642 72.6789 124.47C72.6789 123.308 72.9084 122.403 73.3674 121.755C73.8264 121.107 74.466 120.783 75.2863 120.783C76.1001 120.783 76.7365 121.109 77.1955 121.76C77.6545 122.408 77.884 123.314 77.884 124.479C77.884 125.648 77.6561 126.556 77.2004 127.204C76.7447 127.849 76.1066 128.171 75.2863 128.171ZM74.173 126.506C74.4335 126.978 74.8046 127.214 75.2863 127.214C75.7681 127.214 76.1376 126.979 76.3947 126.511C76.6519 126.039 76.7805 125.358 76.7805 124.47C76.7805 123.591 76.6503 122.917 76.3898 122.448C76.1294 121.976 75.7616 121.74 75.2863 121.74C74.8111 121.74 74.4416 121.976 74.1779 122.448C73.9143 122.92 73.7824 123.594 73.7824 124.47C73.7824 125.355 73.9126 126.034 74.173 126.506Z" fill="#78797A"/>
<circle cx="22" cy="26" r="16" fill="white"/>
<circle cx="22" cy="26" r="15.5" stroke="white" stroke-opacity="0.12"/>
<path fill-rule="evenodd" clip-rule="evenodd" d="M18.962 34.4691C16.019 32.2141 12 28.4891 12 24.9671C12 19.0831 17.5 16.8861 22 21.4301C26.5 16.8861 32 19.0831 32 24.9671C32 28.4891 27.98 32.2141 25.038 34.4691C23.706 35.4891 23.04 36.0001 22 36.0001C20.96 36.0001 20.294 35.4901 18.962 34.4691ZM26.5 22.2501C26.6989 22.2501 26.8897 22.3291 27.0303 22.4698C27.171 22.6104 27.25 22.8012 27.25 23.0001V24.2501H28.5C28.6989 24.2501 28.8897 24.3291 29.0303 24.4698C29.171 24.6104 29.25 24.8012 29.25 25.0001C29.25 25.199 29.171 25.3898 29.0303 25.5304C28.8897 25.6711 28.6989 25.7501 28.5 25.7501H27.25V27.0001C27.25 27.199 27.171 27.3898 27.0303 27.5304C26.8897 27.6711 26.6989 27.7501 26.5 27.7501C26.3011 27.7501 26.1103 27.6711 25.9697 27.5304C25.829 27.3898 25.75 27.199 25.75 27.0001V25.7501H24.5C24.3011 25.7501 24.1103 25.6711 23.9697 25.5304C23.829 25.3898 23.75 25.199 23.75 25.0001C23.75 24.8012 23.829 24.6104 23.9697 24.4698C24.1103 24.3291 24.3011 24.2501 24.5 24.2501H25.75V23.0001C25.75 22.8012 25.829 22.6104 25.9697 22.4698C26.1103 22.3291 26.3011 22.2501 26.5 22.2501Z" fill="#9747FF"/>
<defs>
<linearGradient id="paint0_linear_1_790" x1="58" y1="0" x2="58" y2="140" gradientUnits="userSpaceOnUse">
<stop stop-color="white" stop-opacity="0"/>
<stop offset="1" stop-color="#9747FF" stop-opacity="0.2"/>
</linearGradient>
<linearGradient id="paint1_linear_1_790" x1="116" y1="70" x2="0" y2="70" gradientUnits="userSpaceOnUse">
<stop stop-color="#666666" stop-opacity="0"/>
<stop offset="1" stop-color="#9747FF" stop-opacity="0.2"/>
</linearGradient>
</defs>
</svg>
